<svg id="Layer_1" data-name="Layer 1" xmlns="http://www.w3.org/2000/svg" width="8.59in" height="2.42in" viewBox="0 0 618.16 173.97">
  <title>linkedin</title>
  <path d="M618.16,156.58A17.36,17.36,0,0,1,600.83,174H463.56a17.37,17.37,0,0,1-17.34-17.39V17.39A17.37,17.37,0,0,1,463.56,0H600.83a17.36,17.36,0,0,1,17.33,17.39Z" style="fill: #ddc076"/>
  <g>
    <path d="M6.29,35.08H29.43v83.09H70.21v19.48H6.29Z" style="fill: #fff"/>
    <path d="M102.32,42.54c0,6.39-4.72,11.56-12.48,11.56-7.31,0-12-5.17-12-11.56C77.81,36,82.69,31,90.14,31S102.17,36,102.32,42.54Zm-23.9,95.11V63.23h23.14v74.42Z" style="fill: #fff"/>
    <path d="M115.4,87c0-9.28-.31-17-.61-23.74h20.09l1.06,10.35h.46c3-4.87,10.5-12,23-12,15.22,0,26.63,10.2,26.63,32.11v44H162.88V96.41c0-9.59-3.35-16.13-11.72-16.13-6.39,0-10.19,4.41-11.87,8.67a16.67,16.67,0,0,0-.76,5.79v42.91H115.4Z" style="fill: #fff"/>
    <path d="M223,94.58h.3a99.73,99.73,0,0,1,5.33-9l15.07-22.38h27.85L244.9,93.37l30.44,44.28H246.88l-18.11-30.59L223,114.37v23.28H199.86V29.6H223Z" style="fill: #fff"/>
    <path d="M293.3,107.82c.6,9.59,10.19,14.16,21,14.16a61.3,61.3,0,0,0,20.54-3.2l3.05,15.68c-7.61,3.19-16.9,4.71-26.94,4.71-25.26,0-39.72-14.6-39.72-37.89,0-18.87,11.72-39.72,37.59-39.72,24,0,33.18,18.72,33.18,37.13a54,54,0,0,1-.77,9.13ZM320.54,92c0-5.63-2.44-15.07-13.09-15.07-9.74,0-13.7,9-14.31,15.07Z" style="fill: #fff"/>
    <path d="M423.26,29.6v85.83c0,8.37.3,17.2.61,22.22H403.32l-.91-10.8H402c-4.57,8.21-13.7,12.48-23.28,12.48-17.66,0-31.81-15.07-31.81-38.2-.15-25.11,15.52-39.72,33.33-39.72,9.28,0,16.28,3.35,19.63,8.37h.3V29.6ZM400.12,94.74a21.19,21.19,0,0,0-.3-4.27c-1.37-6.08-6.39-11.26-13.54-11.26-10.66,0-16,9.44-16,21.16,0,12.63,6.25,20.54,15.83,20.54a13.7,13.7,0,0,0,13.55-11.11,30.54,30.54,0,0,0,.45-5.32Z" style="fill: #fff"/>
  </g>
  <g>
    <path d="M502.15,42.54c0,6.39-4.71,11.56-12.47,11.56-7.31,0-12-5.17-12-11.56C477.65,36,482.52,31,490,31S502,36,502.15,42.54Zm-23.89,95.11V63.23h23.13v74.42Z" style="fill: #fff"/>
    <path d="M515.24,87c0-9.28-.31-17-.61-23.74h20.09l1.06,10.35h.46c3-4.87,10.5-12,23-12,15.22,0,26.63,10.2,26.63,32.11v44H562.72V96.41c0-9.59-3.35-16.13-11.72-16.13-6.39,0-10.19,4.41-11.87,8.67a16.67,16.67,0,0,0-.76,5.79v42.91H515.24Z" style="fill: #fff"/>
  </g>
</svg>
