<svg id="Calque_1" data-name="Calque 1" xmlns="http://www.w3.org/2000/svg" width="202.72" height="202.72" viewBox="0 0 202.72 202.72">
  <title>avatar-cercle-03</title>
  <circle cx="101.36" cy="101.36" r="101.36" style="fill: #0c172c"/>
  <g id="Page-1">
    <g>
      <path id="Shape" d="M59.79,126.49a11.78,11.78,0,0,0,1.72,1c.71.37,1.91,1,2,1.4a2.93,2.93,0,0,1-.19,1.68c-.25.52-.51,1-.73,1.37C62,133,61,134.79,62.49,136c.36.33,1,.81,1.53,1.24a4.12,4.12,0,0,0-.53,2.38,2.36,2.36,0,0,0,1,1.62c.37.26.76.49,1.15.71,1,.55,1.35.81,1.48,1.33a4.58,4.58,0,0,1-.16,2,12.26,12.26,0,0,0-.25,1.32,9.73,9.73,0,0,0,.54,4.44,6.18,6.18,0,0,0,5.84,4.5,6.72,6.72,0,0,0,1.35-.14,125.08,125.08,0,0,0,13.92-4.17c3.71,2.18,6.06,8.82,6.68,11.31a1.64,1.64,0,0,0,1.6,1.25l41.42-.11a1.67,1.67,0,0,0,1.33-.68,1.64,1.64,0,0,0,.24-1.47,12.73,12.73,0,0,0-1.67-3.13,16.27,16.27,0,0,1-1.07-1.79,30.23,30.23,0,0,1-1.86-4.7,54.08,54.08,0,0,1-1.95-9.76c-.05-.38-.09-.93-.12-1.5.11,0,.22,0,.34,0a6.6,6.6,0,1,0-3.7-1.14c0,1.09.11,2.25.2,3a59,59,0,0,0,2.08,10.35,34.75,34.75,0,0,0,2.05,5.17,17.4,17.4,0,0,0,1.28,2.15l.11.17-37.43.1A26.47,26.47,0,0,0,92.05,150l1.48-.52,2.37-.81c7.07-2.24,10.6-5.46,10.51-9.57a1.65,1.65,0,0,0-3.3.08c0,1.69-1.35,4.17-8.22,6.34-.44.14-1.3.44-2.45.84s-2.78,1-4.5,1.56h0a128.17,128.17,0,0,1-14.2,4.29,2.92,2.92,0,0,1-3.38-2.2A6.41,6.41,0,0,1,70,147a9.53,9.53,0,0,1,.2-1,7.31,7.31,0,0,0,.14-3.51,5.44,5.44,0,0,0-3.06-3.37l-.34-.2a6,6,0,0,1,.64-1,1.63,1.63,0,0,0,.34-1.24,1.68,1.68,0,0,0-.66-1.11c-.39-.29-1.33-1-2-1.54l.25-.45c.26-.45.55-1,.84-1.59a6.16,6.16,0,0,0,.44-3.69c-.39-2-2.32-3-3.73-3.72a10.24,10.24,0,0,1-1.36-.79,7.6,7.6,0,0,1-1-.8c0-.25.26-.86,1.52-2.39a66.7,66.7,0,0,0,7.56-12.27,5,5,0,0,0,.64-2.23A5.81,5.81,0,0,0,68,101.94c-.66-.61-1.29-1.19-1.37-1.72a3.11,3.11,0,0,1,.26-1.13c.27-.71.58-1.4.89-2.1a23.93,23.93,0,0,0,1.62-4.35l.16-.7a41.5,41.5,0,0,1,1.35-4.88,28.21,28.21,0,0,1,5.92-9.67c3.16-3.34,8.12-5.7,14.79-7a107.84,107.84,0,0,1,15.49-2.23,38.61,38.61,0,0,1,12,1.54,22.88,22.88,0,0,0-7.86,11.2,6.6,6.6,0,1,0,12.56,4.07,9.9,9.9,0,1,1,9.35,12.85,6.69,6.69,0,0,0-4.66,1.86,6.11,6.11,0,0,0-1.83,4.4v13.54a6.6,6.6,0,1,0,13.2,0V110a23.09,23.09,0,1,0-17.11-42.66,43.12,43.12,0,0,0-15.87-2.53,110.16,110.16,0,0,0-16,2.29c-7.44,1.48-12.85,4.09-16.54,8a31.76,31.76,0,0,0-6.62,10.8,46.25,46.25,0,0,0-1.46,5.27l-.17.7a21.31,21.31,0,0,1-1.41,3.76c-.33.75-.67,1.5-1,2.28a5.45,5.45,0,0,0-.43,2.76,6.28,6.28,0,0,0,2.4,3.69c.81.74,1.34,1.26,1.34,1.71a2.34,2.34,0,0,1-.28.72,62.79,62.79,0,0,1-7.22,11.73c-1.19,1.46-2.45,3.16-2.18,4.86A5,5,0,0,0,59.79,126.49Zm73.49,4.31a3.3,3.3,0,1,1-3.3,3.3A3.3,3.3,0,0,1,133.28,130.8Zm2.26-62.59a19.81,19.81,0,0,1,2.31,39,1.64,1.64,0,0,0-1.27,1.61v8.82a3.3,3.3,0,1,1-6.6,0V104.05a2.83,2.83,0,0,1,.85-2,3.28,3.28,0,0,1,2.39-.91h.06a13,13,0,0,0,13.08-11.37A13.21,13.21,0,0,0,120.67,84a3.3,3.3,0,1,1-6.26-2.1A19.92,19.92,0,0,1,135.54,68.21Z" style="fill: #ddc076"/>
      <path d="M75.79,94.15l.17-.74a35.64,35.64,0,0,1,1.1-4,21.61,21.61,0,0,1,4.53-7.43,17.29,17.29,0,0,1,7.6-4.17A1.65,1.65,0,0,0,89.86,75a1.64,1.64,0,0,0-1.63-.35,20.38,20.38,0,0,0-9,5.07A24.94,24.94,0,0,0,74,88.22a36.46,36.46,0,0,0-1.22,4.47l-.17.71a1.66,1.66,0,0,0,1.23,2,2.45,2.45,0,0,0,.38,0A1.65,1.65,0,0,0,75.79,94.15Z" style="fill: #ddc076"/>
      <circle id="Oval" cx="72.22" cy="99.44" r="1.65" style="fill: #ddc076"/>
    </g>
  </g>
  <g>
    <path d="M31.05,45.94l.6,2.48-1.31.31-1.69-7,2.28-.55A4.49,4.49,0,0,1,32.19,41a2.51,2.51,0,0,1,1,.26,1.82,1.82,0,0,1,.67.59,2.48,2.48,0,0,1,.38.86,2.74,2.74,0,0,1,.06,1,2.2,2.2,0,0,1-.33.86,2.72,2.72,0,0,1-.74.68,4.13,4.13,0,0,1-1.16.46Zm-.24-1,1-.23a1.9,1.9,0,0,0,.61-.25,1.2,1.2,0,0,0,.38-.36,1.11,1.11,0,0,0,.17-.47,1.81,1.81,0,0,0,0-.56,1.47,1.47,0,0,0-.22-.49,1,1,0,0,0-.35-.33,1.27,1.27,0,0,0-.5-.13,2,2,0,0,0-.66.06l-1,.24Z" style="fill: #ddc076"/>
    <path d="M39.1,39.18l.25,1L36.23,41l.47,2,2.46-.59.24,1-2.46.59.48,2,3.12-.76.25,1.05-4.43,1.07-1.7-7Z" style="fill: #ddc076"/>
    <path d="M42.59,42.87l.67,2.75L42,45.93l-1.7-7,2.15-.51a4.22,4.22,0,0,1,1.26-.15,2.21,2.21,0,0,1,.94.21,1.73,1.73,0,0,1,.64.52,2.3,2.3,0,0,1,.35.78,2.1,2.1,0,0,1,.06.7,2.07,2.07,0,0,1-.16.65,2.27,2.27,0,0,1-.38.57,3.05,3.05,0,0,1-.58.47,1.26,1.26,0,0,1,.52.3l2.39,2.17-1.18.28a.52.52,0,0,1-.55-.14l-2-1.9a.6.6,0,0,0-.23-.13.66.66,0,0,0-.31,0Zm-.22-.94.81-.2a2.3,2.3,0,0,0,.63-.24,1.54,1.54,0,0,0,.39-.37,1,1,0,0,0,.17-.45,1.49,1.49,0,0,0,0-.51,1,1,0,0,0-.55-.74,1.76,1.76,0,0,0-1.15,0l-.84.2Z" style="fill: #ddc076"/>
    <path d="M50.55,37.77a.51.51,0,0,1-.08.18.27.27,0,0,1-.16.08.38.38,0,0,1-.23,0l-.33-.1a2.41,2.41,0,0,0-.43-.07,1.49,1.49,0,0,0-.54,0,1.47,1.47,0,0,0-.46.18,1.28,1.28,0,0,0-.3.26.81.81,0,0,0-.14.33,1.23,1.23,0,0,0,0,.38.66.66,0,0,0,.24.38,1.36,1.36,0,0,0,.44.19,3.13,3.13,0,0,0,.57.08l.64.06q.33,0,.66.09a2.07,2.07,0,0,1,.6.23,1.54,1.54,0,0,1,.49.43,1.73,1.73,0,0,1,.32.71,2.27,2.27,0,0,1,0,.93,2.12,2.12,0,0,1-.3.84,2.39,2.39,0,0,1-.64.67,3.15,3.15,0,0,1-1,.43,3.85,3.85,0,0,1-.67.09,3,3,0,0,1-.67,0A3.5,3.5,0,0,1,48,44a2.56,2.56,0,0,1-.55-.27l.23-.72a.33.33,0,0,1,.1-.14.29.29,0,0,1,.15-.09.45.45,0,0,1,.29,0l.39.14a3.24,3.24,0,0,0,.51.11,1.83,1.83,0,0,0,.64,0,1.33,1.33,0,0,0,.81-.48,1,1,0,0,0,.12-.83.8.8,0,0,0-.25-.42,1.19,1.19,0,0,0-.44-.2,2.45,2.45,0,0,0-.57-.08l-.63,0a3.51,3.51,0,0,1-.65-.09,1.88,1.88,0,0,1-.61-.23,1.66,1.66,0,0,1-.5-.46,2.2,2.2,0,0,1-.33-.77A2,2,0,0,1,47,37.86a2.42,2.42,0,0,1,.61-.63,2.78,2.78,0,0,1,.94-.4,3.29,3.29,0,0,1,1.2-.08,2.6,2.6,0,0,1,1,.32Z" style="fill: #ddc076"/>
    <path d="M59.39,38a4.28,4.28,0,0,1,.09,1.5A3.57,3.57,0,0,1,59,40.81a3.26,3.26,0,0,1-.94,1,3.75,3.75,0,0,1-1.39.62,4,4,0,0,1-1.52.09,3.61,3.61,0,0,1-1.31-.48,3.55,3.55,0,0,1-1-1,3.86,3.86,0,0,1-.6-1.37,3.79,3.79,0,0,1-.09-1.49,3.34,3.34,0,0,1,.45-1.32,3.49,3.49,0,0,1,.94-1A4.1,4.1,0,0,1,55,35.27a3.85,3.85,0,0,1,2,0,3.54,3.54,0,0,1,.84.38A3.47,3.47,0,0,1,59,37.05,4.15,4.15,0,0,1,59.39,38Zm-1.34.33a3.13,3.13,0,0,0-.41-1,2.17,2.17,0,0,0-.63-.68,2.06,2.06,0,0,0-.81-.32,2.48,2.48,0,0,0-1,.05,2.69,2.69,0,0,0-.89.4,2.16,2.16,0,0,0-.58.66,2.25,2.25,0,0,0-.25.88A3.55,3.55,0,0,0,54,40.4a2.39,2.39,0,0,0,.63.67,2,2,0,0,0,.82.32,2.49,2.49,0,0,0,1,0,2.63,2.63,0,0,0,.88-.4,2,2,0,0,0,.58-.65,2.3,2.3,0,0,0,.25-.89A3.35,3.35,0,0,0,58.05,38.33Z" style="fill: #ddc076"/>
    <path d="M60.52,34a.4.4,0,0,1,.11,0l.11,0,.12.09L65.68,38c0-.11-.07-.23-.1-.33s-.06-.21-.09-.31l-1-4.27,1.16-.28,1.69,7-.67.16a.5.5,0,0,1-.27,0,.52.52,0,0,1-.25-.12l-4.79-3.79.09.3c0,.1.06.19.08.28l1,4.31-1.15.28-1.7-7,.69-.16Z" style="fill: #ddc076"/>
    <path d="M68,32.21h.11a.25.25,0,0,1,.11,0l.12.08,4.82,3.82c0-.11-.07-.22-.1-.33s-.06-.21-.09-.3l-1-4.28L73.1,31l1.7,7-.67.17a.83.83,0,0,1-.27,0,.67.67,0,0,1-.25-.13l-4.79-3.79.09.3c0,.1.06.19.08.28l1,4.31-1.15.28-1.7-7,.69-.16Z" style="fill: #ddc076"/>
    <path d="M82.39,36.17l-1,.25a.49.49,0,0,1-.3,0,.46.46,0,0,1-.21-.18L80,34.92l-2.91.7-.18,1.56a.5.5,0,0,1-.1.24.46.46,0,0,1-.26.16l-1,.25,1.07-7.7,1.33-.32ZM77.2,34.62l2.24-.54L78,31.94a3.76,3.76,0,0,1-.22-.33l-.25-.43c0,.18,0,.34,0,.5s0,.28,0,.4Z" style="fill: #ddc076"/>
    <path d="M84.16,34.6,87,33.92,87.23,35l-4.11,1-1.7-7,1.31-.32Z" style="fill: #ddc076"/>
    <path d="M89.48,34.46l-1.31.32-1.7-7,1.31-.32Z" style="fill: #ddc076"/>
    <path d="M94.26,25.87l.26,1.07-2.12.51,1.44,6-1.31.31-1.44-5.95L89,28.28l-.26-1.07Z" style="fill: #ddc076"/>
    <path d="M99.62,24.58l.25,1-3.12.75.47,1.95,2.46-.59.24,1-2.46.59.48,2,3.12-.75.25,1-4.43,1.07-1.7-7Zm-.59-2-1.24,1.77a.41.41,0,0,1-.16.16l-.22.07-.87.21.7-1.56a.46.46,0,0,1,.07-.14L97.4,23l.13-.06.16,0Z" style="fill: #ddc076"/>
  </g>
  <g>
    <path d="M105.76,47.93a.23.23,0,0,1,.17.12l.42.66a2.83,2.83,0,0,1-1.22.62,3.76,3.76,0,0,1-1.57,0,3.64,3.64,0,0,1-1.37-.54,3.15,3.15,0,0,1-.94-.95,3.45,3.45,0,0,1-.47-1.28,4.54,4.54,0,0,1,0-1.51,4.17,4.17,0,0,1,.53-1.41,3.68,3.68,0,0,1,.94-1,3.42,3.42,0,0,1,1.25-.54,3.83,3.83,0,0,1,1.47,0,3.46,3.46,0,0,1,1.33.51,3.37,3.37,0,0,1,.9.86l-.56.53a.27.27,0,0,1-.12.09.31.31,0,0,1-.17,0,.34.34,0,0,1-.15-.07,1.79,1.79,0,0,1-.15-.14l-.19-.17a1.34,1.34,0,0,0-.26-.19,3,3,0,0,0-.36-.18,2.54,2.54,0,0,0-.48-.13,2.32,2.32,0,0,0-.91,0,2,2,0,0,0-.77.37,2.27,2.27,0,0,0-.59.7,3.56,3.56,0,0,0-.36,1,3.43,3.43,0,0,0,0,1.1,2.56,2.56,0,0,0,.31.87,1.94,1.94,0,0,0,.59.62,2.21,2.21,0,0,0,.82.33l.49.06a1.91,1.91,0,0,0,.42,0,1.64,1.64,0,0,0,.38-.1,1.57,1.57,0,0,0,.37-.18.31.31,0,0,1,.12-.05A.17.17,0,0,1,105.76,47.93Z" style="fill: #ddc076"/>
    <path d="M114.36,47.61a4.2,4.2,0,0,1-.53,1.4,3.54,3.54,0,0,1-1,1,3.34,3.34,0,0,1-1.28.55,4.09,4.09,0,0,1-1.52,0,3.8,3.8,0,0,1-1.42-.55,3.43,3.43,0,0,1-1-1,3.63,3.63,0,0,1-.51-1.29,4,4,0,0,1,0-1.5,4.2,4.2,0,0,1,.53-1.4,3.54,3.54,0,0,1,1-1,3.41,3.41,0,0,1,1.28-.55,4.15,4.15,0,0,1,1.53,0,3.83,3.83,0,0,1,1,.32,3.71,3.71,0,0,1,.81.51,4,4,0,0,1,.61.69,3.73,3.73,0,0,1,.4.83,4.11,4.11,0,0,1,.17.94A4.46,4.46,0,0,1,114.36,47.61ZM113,47.35a3.63,3.63,0,0,0,0-1.08,2.36,2.36,0,0,0-.3-.87,2,2,0,0,0-.61-.63,2.74,2.74,0,0,0-.91-.35,2.58,2.58,0,0,0-1,0,2,2,0,0,0-.81.36,2.31,2.31,0,0,0-.59.71,3,3,0,0,0-.36,1,3.33,3.33,0,0,0,0,1.08,2.36,2.36,0,0,0,.3.87,2,2,0,0,0,.62.63,2.7,2.7,0,0,0,1.87.36,2.09,2.09,0,0,0,.8-.37,2.16,2.16,0,0,0,.59-.7A3.6,3.6,0,0,0,113,47.35Z" style="fill: #ddc076"/>
    <path d="M117,44.44l.1.05a.3.3,0,0,1,.08.08l.08.13,2.82,5.46c0-.12,0-.23,0-.34s0-.22,0-.32l.82-4.31,1.16.21-1.34,7.11-.68-.13a.57.57,0,0,1-.25-.1.74.74,0,0,1-.17-.21l-2.82-5.43c0,.1,0,.21,0,.31a2.26,2.26,0,0,1,0,.29L116,51.6l-1.17-.22,1.34-7.1.69.13Z" style="fill: #ddc076"/>
    <path d="M124.6,45.87l.1.05a.3.3,0,0,1,.08.08.74.74,0,0,1,.08.13l2.83,5.46c0-.12,0-.23,0-.35s0-.21,0-.31l.82-4.32,1.16.22-1.34,7.11-.67-.13a.62.62,0,0,1-.26-.1.74.74,0,0,1-.17-.21l-2.82-5.44,0,.32c0,.1,0,.2,0,.28L123.59,53l-1.17-.22,1.34-7.11.7.13Z" style="fill: #ddc076"/>
    <path d="M136.08,55.38l-1-.19a.44.44,0,0,1-.26-.14.7.7,0,0,1-.13-.24l-.25-1.55-2.95-.56-.8,1.35a.47.47,0,0,1-.19.18.44.44,0,0,1-.3,0l-1-.19,4.13-6.58,1.35.25ZM132,51.83l2.26.43-.41-2.53a3.08,3.08,0,0,1-.07-.39c0-.15,0-.32-.05-.49-.07.16-.15.3-.22.44s-.14.25-.2.35Z" style="fill: #ddc076"/>
    <path d="M138.15,55.77l-1.33-.25,1.34-7.1,1.33.25Z" style="fill: #ddc076"/>
    <path d="M144.61,51a.44.44,0,0,1-.15.13.27.27,0,0,1-.18,0,.45.45,0,0,1-.2-.11l-.26-.23a2.81,2.81,0,0,0-.36-.24,1.69,1.69,0,0,0-.51-.18,1.72,1.72,0,0,0-.5,0,1.13,1.13,0,0,0-.38.12.75.75,0,0,0-.26.24,1,1,0,0,0-.14.35.59.59,0,0,0,.07.44,1.15,1.15,0,0,0,.31.36,3.18,3.18,0,0,0,.49.31l.57.31a5.21,5.21,0,0,1,.55.36,2,2,0,0,1,.46.46,1.61,1.61,0,0,1,.28.59,1.87,1.87,0,0,1,0,.78,2.54,2.54,0,0,1-.33.87,2.1,2.1,0,0,1-.62.64,2.23,2.23,0,0,1-.87.34,2.81,2.81,0,0,1-1.08,0,3.75,3.75,0,0,1-.65-.2,2.62,2.62,0,0,1-.6-.31,2.91,2.91,0,0,1-.51-.4,2.22,2.22,0,0,1-.4-.47l.51-.56a.38.38,0,0,1,.15-.09.32.32,0,0,1,.17,0,.56.56,0,0,1,.25.15l.29.29a2.86,2.86,0,0,0,.42.31,1.67,1.67,0,0,0,.62.22,1.31,1.31,0,0,0,.92-.1,1,1,0,0,0,.46-.71.75.75,0,0,0-.06-.48,1.2,1.2,0,0,0-.31-.37,3.18,3.18,0,0,0-.49-.31l-.57-.29a4.62,4.62,0,0,1-.55-.35,2,2,0,0,1-.46-.46,1.67,1.67,0,0,1-.27-.62,2.19,2.19,0,0,1,0-.84,2,2,0,0,1,.3-.73,1.82,1.82,0,0,1,.57-.57,2.25,2.25,0,0,1,.81-.32,2.57,2.57,0,0,1,1,0,3.33,3.33,0,0,1,1.12.41,2.66,2.66,0,0,1,.8.72Z" style="fill: #ddc076"/>
    <path d="M150,52a.58.58,0,0,1-.15.13.32.32,0,0,1-.17,0,.38.38,0,0,1-.21-.12l-.26-.22a2.81,2.81,0,0,0-.36-.24,1.69,1.69,0,0,0-.51-.18,1.72,1.72,0,0,0-.5,0,.81.81,0,0,0-.38.12.85.85,0,0,0-.26.24,1,1,0,0,0-.14.35.66.66,0,0,0,.06.44,1.34,1.34,0,0,0,.32.36,4.18,4.18,0,0,0,.49.31l.57.31a6.49,6.49,0,0,1,.55.36,2,2,0,0,1,.46.45,1.5,1.5,0,0,1,.27.6,1.66,1.66,0,0,1,0,.77,2.46,2.46,0,0,1-.33.87,2.14,2.14,0,0,1-.62.65,2.4,2.4,0,0,1-.87.34,2.83,2.83,0,0,1-1.08,0,3,3,0,0,1-.65-.19,3.77,3.77,0,0,1-.6-.31,2.91,2.91,0,0,1-.51-.4,2.86,2.86,0,0,1-.4-.47l.51-.56a.38.38,0,0,1,.15-.09.25.25,0,0,1,.17,0,.56.56,0,0,1,.25.15c.08.09.18.18.3.29a2.31,2.31,0,0,0,.41.31,1.9,1.9,0,0,0,.61.22,1.33,1.33,0,0,0,.93-.1,1,1,0,0,0,.45-.72.7.7,0,0,0-.05-.48,1,1,0,0,0-.31-.36,2.41,2.41,0,0,0-.49-.31l-.57-.29a6.37,6.37,0,0,1-.55-.35,2,2,0,0,1-.46-.46,1.74,1.74,0,0,1-.27-.62,2.24,2.24,0,0,1,0-.85,1.9,1.9,0,0,1,.3-.72,1.94,1.94,0,0,1,.57-.57,2.09,2.09,0,0,1,.81-.32,2.75,2.75,0,0,1,1,0,3.34,3.34,0,0,1,1.12.42,2.65,2.65,0,0,1,.8.72Z" style="fill: #ddc076"/>
    <path d="M156.46,59.23l-1-.2a.43.43,0,0,1-.27-.13.64.64,0,0,1-.12-.25l-.26-1.55-2.94-.55-.8,1.35a.42.42,0,0,1-.2.17.36.36,0,0,1-.29,0l-1-.19,4.13-6.58,1.35.26Zm-4.09-3.55,2.26.42-.42-2.52c0-.12,0-.25-.06-.4s0-.31-.05-.49c-.08.16-.15.31-.23.44a2.9,2.9,0,0,1-.2.36Z" style="fill: #ddc076"/>
    <path d="M159.37,52.43l.1,0a.2.2,0,0,1,.08.08.49.49,0,0,1,.08.13l2.83,5.46c0-.12,0-.24,0-.35s0-.21,0-.31l.82-4.32,1.16.22-1.34,7.11-.67-.13a.78.78,0,0,1-.26-.1.67.67,0,0,1-.17-.22l-2.82-5.43,0,.32c0,.1,0,.2,0,.28l-.82,4.37-1.16-.22,1.33-7.11.7.13Z" style="fill: #ddc076"/>
    <path d="M170,60a.27.27,0,0,1,.18.12l.41.66a2.89,2.89,0,0,1-1.22.62,3.76,3.76,0,0,1-1.57,0,3.71,3.71,0,0,1-1.37-.54,3.27,3.27,0,0,1-.94-.95,3.44,3.44,0,0,1-.46-1.28,4.28,4.28,0,0,1,0-1.51,4,4,0,0,1,.54-1.41,3.38,3.38,0,0,1,.93-1,3.42,3.42,0,0,1,1.25-.54,4.09,4.09,0,0,1,1.48,0,3.6,3.6,0,0,1,1.33.52,3.52,3.52,0,0,1,.9.86l-.56.53-.12.09a.35.35,0,0,1-.18,0,.34.34,0,0,1-.15-.07l-.15-.14-.19-.17a1.34,1.34,0,0,0-.26-.19l-.35-.18a2.66,2.66,0,0,0-.49-.13,2.27,2.27,0,0,0-.9,0,2,2,0,0,0-.78.37,2.27,2.27,0,0,0-.59.7,3.56,3.56,0,0,0-.36,1,3.43,3.43,0,0,0,0,1.1,2.38,2.38,0,0,0,.32.87,1.91,1.91,0,0,0,.58.62,2.36,2.36,0,0,0,.82.33l.49.06a1.91,1.91,0,0,0,.42,0,1.64,1.64,0,0,0,.38-.1,2.18,2.18,0,0,0,.38-.18.39.39,0,0,1,.11-.06Z" style="fill: #ddc076"/>
    <path d="M177.09,55.76l-.2,1.05-3.15-.59-.38,2,2.49.47-.19,1-2.49-.47-.38,2,3.16.6-.2,1L171.27,62l1.34-7.1Z" style="fill: #ddc076"/>
    <path d="M181.8,58a.51.51,0,0,1-.16.12.25.25,0,0,1-.17,0,.38.38,0,0,1-.21-.12,3.28,3.28,0,0,0-.26-.22,1.61,1.61,0,0,0-.87-.42,1.4,1.4,0,0,0-.49,0,1.06,1.06,0,0,0-.38.12.72.72,0,0,0-.27.25.93.93,0,0,0-.13.34.68.68,0,0,0,.06.45,1.16,1.16,0,0,0,.32.35,3.62,3.62,0,0,0,.48.31l.57.32a4.83,4.83,0,0,1,.56.36,2.18,2.18,0,0,1,.46.45,1.68,1.68,0,0,1,.27.59,2,2,0,0,1,0,.78,2.36,2.36,0,0,1-.34.87,2.1,2.1,0,0,1-.62.64,2.44,2.44,0,0,1-.86.35,3,3,0,0,1-1.08,0,3.58,3.58,0,0,1-.66-.19,4.25,4.25,0,0,1-.6-.31,5,5,0,0,1-.51-.4,3,3,0,0,1-.4-.48l.51-.56a.38.38,0,0,1,.15-.09.37.37,0,0,1,.18,0,.4.4,0,0,1,.24.15l.3.29a2.54,2.54,0,0,0,.42.31,1.81,1.81,0,0,0,.61.22,1.3,1.3,0,0,0,.92-.11,1,1,0,0,0,.46-.71.76.76,0,0,0-.05-.48,1.24,1.24,0,0,0-.32-.37,2.55,2.55,0,0,0-.49-.3l-.56-.3a4.73,4.73,0,0,1-.56-.35,2,2,0,0,1-.46-.45,1.78,1.78,0,0,1-.26-.63,2.17,2.17,0,0,1,0-.84,2,2,0,0,1,.3-.73,2.21,2.21,0,0,1,.57-.57,2.31,2.31,0,0,1,.82-.32,2.71,2.71,0,0,1,1,0,3.55,3.55,0,0,1,1.12.41,2.56,2.56,0,0,1,.8.73Z" style="fill: #ddc076"/>
  </g>
  <g>
    <path d="M158.15,140.07a3.79,3.79,0,0,1,.13,1.48,3.27,3.27,0,0,1-1.34,2.32,3.92,3.92,0,0,1-1.38.65l-2.65.72-1.9-7,2.66-.72a4,4,0,0,1,1.52-.14,3.21,3.21,0,0,1,1.31.42,3.35,3.35,0,0,1,1,.9A4,4,0,0,1,158.15,140.07Zm-1.33.37a3.22,3.22,0,0,0-.43-1,2.16,2.16,0,0,0-.65-.66,2,2,0,0,0-.83-.29,2.29,2.29,0,0,0-1,.08l-1.36.37,1.34,4.91,1.35-.37a2.4,2.4,0,0,0,.88-.42,2,2,0,0,0,.56-.67,2.29,2.29,0,0,0,.23-.89A3.16,3.16,0,0,0,156.82,140.44Z" style="fill: #ddc076"/>
    <path d="M162.75,135.08l.28,1-3.1.84.53,1.94,2.44-.67.27,1-2.44.67.54,2,3.09-.84.29,1-4.41,1.19-1.89-7Zm-.64-2-1.19,1.81a.38.38,0,0,1-.16.15.71.71,0,0,1-.21.08l-.87.24.65-1.58.07-.14.09-.09.12-.06.17,0Z" style="fill: #ddc076"/>
    <path d="M168,135a.44.44,0,0,1-.09.18.28.28,0,0,1-.14.09.41.41,0,0,1-.24,0l-.33-.09a2.62,2.62,0,0,0-.43-.06,1.54,1.54,0,0,0-.54.07,1.33,1.33,0,0,0-.45.19,1,1,0,0,0-.29.27.65.65,0,0,0-.13.34.94.94,0,0,0,0,.37.66.66,0,0,0,.25.37,1,1,0,0,0,.44.18,3.41,3.41,0,0,0,.58.07l.64,0,.66.08a2.1,2.1,0,0,1,.61.21,1.68,1.68,0,0,1,.51.42,1.76,1.76,0,0,1,.33.7,2.27,2.27,0,0,1,.08.93,2.08,2.08,0,0,1-.27.84,2.57,2.57,0,0,1-.63.69,3.07,3.07,0,0,1-1,.46,3.21,3.21,0,0,1-.68.11,3,3,0,0,1-.67,0,3.2,3.2,0,0,1-.63-.13,3,3,0,0,1-.57-.25l.21-.73a.44.44,0,0,1,.1-.15.38.38,0,0,1,.15-.09.51.51,0,0,1,.29,0l.39.13a3.29,3.29,0,0,0,.51.1,2.22,2.22,0,0,0,.65-.07,1.29,1.29,0,0,0,.78-.5,1,1,0,0,0,.1-.84.7.7,0,0,0-.26-.41,1.18,1.18,0,0,0-.44-.19,2.49,2.49,0,0,0-.57-.06l-.64,0a5,5,0,0,1-.65-.07A2.1,2.1,0,0,1,165,138a1.8,1.8,0,0,1-.51-.45,2.24,2.24,0,0,1-.36-.76,2,2,0,0,1,.22-1.55,2.22,2.22,0,0,1,.59-.64,2.68,2.68,0,0,1,.93-.44,3.27,3.27,0,0,1,1.19-.11,2.57,2.57,0,0,1,1,.3Z" style="fill: #ddc076"/>
    <path d="M172.39,140l-1.3.36-1.9-7,1.3-.35Z" style="fill: #ddc076"/>
    <path d="M174.51,136.45l.74,2.73-1.3.35-1.9-7,2.13-.58a4.71,4.71,0,0,1,1.26-.18,2.51,2.51,0,0,1,.95.19,1.6,1.6,0,0,1,.65.5,2.2,2.2,0,0,1,.37.77,2.12,2.12,0,0,1-.06,1.35,2.77,2.77,0,0,1-.36.58,2.69,2.69,0,0,1-.57.48,1.39,1.39,0,0,1,.53.29l2.45,2.1-1.18.32a.54.54,0,0,1-.55-.13l-2.07-1.84a.6.6,0,0,0-.23-.13.72.72,0,0,0-.31,0Zm-.26-.93.81-.22a2.23,2.23,0,0,0,.62-.27,1.34,1.34,0,0,0,.38-.37,1.05,1.05,0,0,0,.16-.46,1.52,1.52,0,0,0-.05-.51,1,1,0,0,0-.57-.72,1.8,1.8,0,0,0-1.15,0l-.83.22Z" style="fill: #ddc076"/>
    <path d="M182.32,131.13a.75.75,0,0,1-.08.18.38.38,0,0,1-.15.09.51.51,0,0,1-.24,0l-.33-.09a2.62,2.62,0,0,0-.43-.06,1.54,1.54,0,0,0-.54.07,1.33,1.33,0,0,0-.45.19,1,1,0,0,0-.3.27.83.83,0,0,0-.13.34,1.18,1.18,0,0,0,0,.37.66.66,0,0,0,.25.37,1,1,0,0,0,.44.18,3.41,3.41,0,0,0,.58.07l.64,0c.22,0,.44,0,.66.08a2.1,2.1,0,0,1,.61.21,1.68,1.68,0,0,1,.51.42,1.76,1.76,0,0,1,.33.7,2.27,2.27,0,0,1,.08.93,2.08,2.08,0,0,1-.27.84,2.57,2.57,0,0,1-.63.69,3.07,3.07,0,0,1-1,.46,3.21,3.21,0,0,1-.68.11,3.75,3.75,0,0,1-.67,0,2.62,2.62,0,0,1-.63-.14,2.1,2.1,0,0,1-.57-.25l.21-.72a.36.36,0,0,1,.1-.15.38.38,0,0,1,.15-.09.51.51,0,0,1,.29,0l.39.13a2.45,2.45,0,0,0,.51.09,1.9,1.9,0,0,0,.65-.06,1.29,1.29,0,0,0,.78-.5,1,1,0,0,0,.1-.84.7.7,0,0,0-.26-.41,1.18,1.18,0,0,0-.44-.19,2.49,2.49,0,0,0-.57-.06l-.64,0c-.21,0-.43,0-.65-.07a1.86,1.86,0,0,1-.61-.22,1.62,1.62,0,0,1-.51-.44,2.21,2.21,0,0,1-.36-.77,2,2,0,0,1,0-.78,2.1,2.1,0,0,1,.27-.76,2.22,2.22,0,0,1,.59-.64,2.68,2.68,0,0,1,.93-.44,3.27,3.27,0,0,1,1.19-.11,2.47,2.47,0,0,1,1,.3Z" style="fill: #ddc076"/>
  </g>
  <g>
    <path d="M15.18,86l-1,.12a.42.42,0,0,1-.3,0,.58.58,0,0,1-.18-.2L13,84.51l-3,.34-.37,1.52a.47.47,0,0,1-.4.36l-1.05.12,2-7.51,1.36-.16Zm-5-2.18,2.29-.26-1.15-2.29c0-.1-.11-.22-.17-.36s-.13-.29-.2-.45c0,.17-.05.34-.08.49s-.06.28-.09.39Z" style="fill: #ddc076"/>
    <path d="M17,83.28l.29,2.53L15.93,86l-.83-7.18,2.34-.27a4.09,4.09,0,0,1,1.27,0,2.48,2.48,0,0,1,.92.38,1.87,1.87,0,0,1,.59.66,2.61,2.61,0,0,1,.27.91,2.58,2.58,0,0,1-.06,1,1.89,1.89,0,0,1-.44.81,2.5,2.5,0,0,1-.81.59,4,4,0,0,1-1.21.31Zm-.12-1,1-.11a1.81,1.81,0,0,0,.63-.17,1.16,1.16,0,0,0,.43-.31,1.18,1.18,0,0,0,.22-.45,1.71,1.71,0,0,0,0-.56,1.6,1.6,0,0,0-.15-.51,1,1,0,0,0-.32-.37,1.31,1.31,0,0,0-.48-.2,2.31,2.31,0,0,0-.65,0l-1,.12Z" style="fill: #ddc076"/>
    <path d="M26.27,77.5l.13,1.1-2.17.24.7,6.09-1.34.15L22.9,79l-2.17.24-.13-1.09Z" style="fill: #ddc076"/>
    <path d="M29.38,84.42,28,84.57l-.82-7.18,1.34-.15Z" style="fill: #ddc076"/>
    <path d="M35.18,76.48l.12,1.1-2.16.24.69,6.09-1.33.15L31.8,78l-2.16.25-.13-1.1Z" style="fill: #ddc076"/>
    <path d="M39.71,82.15a1.94,1.94,0,0,0,.68-.21,1.39,1.39,0,0,0,.47-.43,1.63,1.63,0,0,0,.26-.6,2.36,2.36,0,0,0,0-.76l-.5-4.3L42,75.7l.49,4.3a3.23,3.23,0,0,1-.07,1.21,2.6,2.6,0,0,1-1.35,1.73,3.29,3.29,0,0,1-1.22.36,3.13,3.13,0,0,1-1.27-.08,2.5,2.5,0,0,1-1-.51,2.61,2.61,0,0,1-.7-.87,3.28,3.28,0,0,1-.35-1.16L36,76.38l1.34-.15.49,4.3a2.38,2.38,0,0,0,.2.73,1.62,1.62,0,0,0,.39.53,1.49,1.49,0,0,0,.55.31A2.06,2.06,0,0,0,39.71,82.15Z" style="fill: #ddc076"/>
    <path d="M50.29,78.39a3.82,3.82,0,0,1-.1,1.48,3.26,3.26,0,0,1-.61,1.22,3.35,3.35,0,0,1-1.06.87,4.22,4.22,0,0,1-1.46.44l-2.74.31-.82-7.18,2.74-.32a4,4,0,0,1,1.52.1,3.3,3.3,0,0,1,1.23.61,3.44,3.44,0,0,1,.87,1A4,4,0,0,1,50.29,78.39Zm-1.37.15a3.52,3.52,0,0,0-.28-1,2,2,0,0,0-1.32-1.16,2.52,2.52,0,0,0-1-.06l-1.4.16.58,5,1.4-.16a2.37,2.37,0,0,0,.92-.28,2,2,0,0,0,.66-.58,2.25,2.25,0,0,0,.36-.85A3.46,3.46,0,0,0,48.92,78.54Z" style="fill: #ddc076"/>
    <path d="M55.58,74.14l.13,1.07-3.19.36.22,2,2.52-.28.12,1-2.52.29.23,2,3.19-.36.13,1.07-4.53.52-.83-7.19Z" style="fill: #ddc076"/>
    <path d="M60.74,74.88a.41.41,0,0,1-.11.16.26.26,0,0,1-.16.07.4.4,0,0,1-.23,0l-.31-.14a3,3,0,0,0-.42-.13,1.6,1.6,0,0,0-.54,0,1.53,1.53,0,0,0-.48.12,1.14,1.14,0,0,0-.33.23.87.87,0,0,0-.18.31,1.11,1.11,0,0,0,0,.37.71.71,0,0,0,.19.41,1.27,1.27,0,0,0,.41.24,3.77,3.77,0,0,0,.56.15l.63.13c.22.05.43.11.64.18a1.94,1.94,0,0,1,.57.3,1.6,1.6,0,0,1,.44.49,1.84,1.84,0,0,1,.23.74,2.41,2.41,0,0,1-.06.93,2.32,2.32,0,0,1-.4.8,2.34,2.34,0,0,1-.73.58,2.89,2.89,0,0,1-1,.31,3.88,3.88,0,0,1-.68,0,3.5,3.5,0,0,1-.66-.12,3.67,3.67,0,0,1-.61-.23,3.11,3.11,0,0,1-.52-.34l.32-.68a.49.49,0,0,1,.11-.14.49.49,0,0,1,.17-.06.46.46,0,0,1,.28.07l.36.19a4.15,4.15,0,0,0,.5.17,1.7,1.7,0,0,0,.65,0,1.37,1.37,0,0,0,.85-.37,1,1,0,0,0,.22-.82.69.69,0,0,0-.19-.44,1.15,1.15,0,0,0-.41-.26,3.77,3.77,0,0,0-.56-.15l-.62-.11a4.64,4.64,0,0,1-.64-.17,1.94,1.94,0,0,1-.57-.3,1.62,1.62,0,0,1-.44-.52,2,2,0,0,1-.23-.81,2.06,2.06,0,0,1,.06-.78,2.12,2.12,0,0,1,.38-.71,2.24,2.24,0,0,1,.69-.55,2.57,2.57,0,0,1,1-.29,3.13,3.13,0,0,1,1.19.07,2.6,2.6,0,0,1,1,.45Z" style="fill: #ddc076"/>
  </g>
  <g>
    <path d="M38.46,167a.26.26,0,0,1,.16.13l.38.68a2.8,2.8,0,0,1-1.26.55,3.7,3.7,0,0,1-1.56-.1,3.53,3.53,0,0,1-1.34-.62,3.26,3.26,0,0,1-.88-1,3.46,3.46,0,0,1-.39-1.3,4.58,4.58,0,0,1,.13-1.5,4.1,4.1,0,0,1,.62-1.39,3.57,3.57,0,0,1,1-.95,3.33,3.33,0,0,1,1.28-.46,3.76,3.76,0,0,1,1.48.09,3.66,3.66,0,0,1,1.29.59,3.34,3.34,0,0,1,.85.92l-.59.49a.35.35,0,0,1-.13.08.27.27,0,0,1-.18,0,.41.41,0,0,1-.14-.08L39,163l-.18-.19a1.29,1.29,0,0,0-.25-.2,1.79,1.79,0,0,0-.34-.2,2.45,2.45,0,0,0-.48-.16,2.13,2.13,0,0,0-.9-.05,2,2,0,0,0-.8.31,2.39,2.39,0,0,0-.63.67,3.38,3.38,0,0,0-.42,1,3,3,0,0,0-.09,1.1,2.49,2.49,0,0,0,.25.89,2.06,2.06,0,0,0,.56.65,2.15,2.15,0,0,0,.79.38l.49.09a2,2,0,0,0,.42,0,1.61,1.61,0,0,0,.38-.08,2.14,2.14,0,0,0,.39-.16.28.28,0,0,1,.12,0Z" style="fill: #ddc076"/>
    <path d="M47.06,167.23a4.08,4.08,0,0,1-.62,1.37,3.47,3.47,0,0,1-1,1,3.27,3.27,0,0,1-1.31.47,3.78,3.78,0,0,1-1.52-.1,3.93,3.93,0,0,1-1.39-.63,3.37,3.37,0,0,1-.93-1,3.49,3.49,0,0,1-.44-1.32,4.29,4.29,0,0,1,.1-1.5,4.12,4.12,0,0,1,.62-1.36,3.41,3.41,0,0,1,2.32-1.42,3.77,3.77,0,0,1,1.52.1,3.63,3.63,0,0,1,1,.38,3.24,3.24,0,0,1,.78.56,3.68,3.68,0,0,1,.57.73,3.54,3.54,0,0,1,.35.85,3.69,3.69,0,0,1,.11.95A4.36,4.36,0,0,1,47.06,167.23Zm-1.33-.33a3.4,3.4,0,0,0,.1-1.08,2.25,2.25,0,0,0-.25-.88,1.75,1.75,0,0,0-.57-.67,2.3,2.3,0,0,0-.88-.4,2.27,2.27,0,0,0-1-.06,1.86,1.86,0,0,0-.83.31,2.37,2.37,0,0,0-.64.66,3.62,3.62,0,0,0-.41,1,3.45,3.45,0,0,0-.11,1.08,2.25,2.25,0,0,0,.25.88,2.05,2.05,0,0,0,.58.67,2.46,2.46,0,0,0,.88.4,2.27,2.27,0,0,0,1,.06,1.89,1.89,0,0,0,.82-.31,2.24,2.24,0,0,0,.64-.66A3.5,3.5,0,0,0,45.73,166.9Z" style="fill: #ddc076"/>
    <path d="M51.65,169.37c0,.12,0,.25.05.37l.23-.31a3.22,3.22,0,0,1,.24-.28l3-3.37.12-.09a.21.21,0,0,1,.11,0h.12l.15,0,1,.25-1.76,7-1.15-.29,1.14-4.53c0-.09,0-.18.07-.28a2.64,2.64,0,0,0,.1-.3L52,171a.51.51,0,0,1-.53.17l-.18,0a.5.5,0,0,1-.39-.4l-1.14-4.53c0,.11,0,.21,0,.32a2.29,2.29,0,0,1-.07.28l-1.14,4.53L47.32,171l1.77-7,1,.25.14,0,.11.05a.34.34,0,0,1,.08.09,1.09,1.09,0,0,1,.05.14L51.58,169C51.61,169.13,51.63,169.25,51.65,169.37Z" style="fill: #ddc076"/>
    <path d="M58.41,171.2l-.62,2.47-1.3-.33,1.76-7,2.28.57a4.15,4.15,0,0,1,1.18.48,2.38,2.38,0,0,1,.73.67,1.92,1.92,0,0,1,.32.83,2.38,2.38,0,0,1-.07,1,2.67,2.67,0,0,1-.4.89,2.2,2.2,0,0,1-.69.6,2.67,2.67,0,0,1-1,.26,4,4,0,0,1-1.24-.13Zm.26-1,1,.25a2.22,2.22,0,0,0,.65.07,1.27,1.27,0,0,0,.51-.15,1,1,0,0,0,.37-.34,1.68,1.68,0,0,0,.22-.51,1.4,1.4,0,0,0,0-.53,1.05,1.05,0,0,0-.16-.46,1.29,1.29,0,0,0-.38-.35,2.28,2.28,0,0,0-.61-.25l-1-.24Z" style="fill: #ddc076"/>
    <path d="M68.68,169l-.26,1-3.12-.78-.49,1.94,2.46.62-.26,1-2.45-.62-.5,2,3.11.78L66.91,176l-4.42-1.12,1.77-7Zm.4-2-1.92,1A.48.48,0,0,1,67,168a.74.74,0,0,1-.23,0l-.86-.22,1.34-1.05a.51.51,0,0,1,.13-.09.24.24,0,0,1,.12,0,.3.3,0,0,1,.13,0l.17,0Z" style="fill: #ddc076"/>
    <path d="M74.73,170.48l-.27,1.07L72.34,171,70.85,177l-1.31-.33,1.5-5.94-2.11-.53.27-1.07Z" style="fill: #ddc076"/>
    <path d="M80.07,171.83l-.26,1-3.11-.79L76.21,174l2.45.61-.25,1L76,175l-.5,2,3.12.79-.27,1-4.42-1.11,1.77-7Z" style="fill: #ddc076"/>
    <path d="M82.05,172.33l.1.06a.22.22,0,0,1,.07.09.76.76,0,0,1,.07.13l2.49,5.62.06-.34c0-.11,0-.21.07-.31L86,173.32l1.15.29-1.77,7-.67-.17a.49.49,0,0,1-.25-.12.66.66,0,0,1-.16-.22l-2.48-5.59a1.55,1.55,0,0,1-.06.31c0,.11,0,.2-.06.28l-1.08,4.31-1.15-.29,1.77-7,.68.17Z" style="fill: #ddc076"/>
    <path d="M92.16,180.57a.27.27,0,0,1,.17.13l.37.69a3,3,0,0,1-1.25.55,3.74,3.74,0,0,1-1.57-.1,3.63,3.63,0,0,1-1.33-.62,3,3,0,0,1-.88-1,3.18,3.18,0,0,1-.39-1.31A4.59,4.59,0,0,1,88,176a3.47,3.47,0,0,1,1-1,3.12,3.12,0,0,1,1.28-.46,3.69,3.69,0,0,1,1.47.08,3.63,3.63,0,0,1,1.3.6,3.43,3.43,0,0,1,.84.91l-.59.5a.5.5,0,0,1-.12.08.28.28,0,0,1-.18,0,.29.29,0,0,1-.14-.08,1,1,0,0,1-.14-.15l-.18-.18a1.84,1.84,0,0,0-.25-.21A2.76,2.76,0,0,0,92,176a2.32,2.32,0,0,0-.47-.17,2.36,2.36,0,0,0-.91-.05,1.89,1.89,0,0,0-.79.32,2.26,2.26,0,0,0-.63.67,3.38,3.38,0,0,0-.42,1,3.29,3.29,0,0,0-.1,1.1,2.5,2.5,0,0,0,.26.89,2.14,2.14,0,0,0,.55.65,2.41,2.41,0,0,0,.79.38l.49.09a3,3,0,0,0,.42,0,2.45,2.45,0,0,0,.39-.08,2.39,2.39,0,0,0,.38-.16l.12-.05Z" style="fill: #ddc076"/>
    <path d="M99.53,176.73l-.26,1L96.16,177l-.49,1.94,2.45.62-.25,1-2.46-.62-.5,2,3.12.78-.26,1-4.43-1.11,1.77-7Z" style="fill: #ddc076"/>
    <path d="M104.1,179.24a.51.51,0,0,1-.16.12.28.28,0,0,1-.18,0,.42.42,0,0,1-.2-.13l-.24-.24a2.51,2.51,0,0,0-.34-.26,1.75,1.75,0,0,0-.5-.21,1.84,1.84,0,0,0-.5-.05,1.12,1.12,0,0,0-.38.09.71.71,0,0,0-.28.23,1,1,0,0,0-.16.34.63.63,0,0,0,0,.45,1.21,1.21,0,0,0,.29.37,3,3,0,0,0,.47.34l.54.35a5.3,5.3,0,0,1,.54.39,2.18,2.18,0,0,1,.43.48,1.56,1.56,0,0,1,.24.61,1.9,1.9,0,0,1,0,.77,2.45,2.45,0,0,1-.39.85,2.26,2.26,0,0,1-.66.61,2.29,2.29,0,0,1-.88.29,2.93,2.93,0,0,1-1.08-.09,2.87,2.87,0,0,1-.64-.23,3.68,3.68,0,0,1-.58-.34,4.07,4.07,0,0,1-.49-.43,3.31,3.31,0,0,1-.36-.5l.54-.53a.36.36,0,0,1,.15-.08.28.28,0,0,1,.18,0,.42.42,0,0,1,.23.16l.28.31a2.81,2.81,0,0,0,.4.33,1.84,1.84,0,0,0,.6.26,1.31,1.31,0,0,0,.93-.05.94.94,0,0,0,.49-.68.73.73,0,0,0,0-.49,1,1,0,0,0-.29-.38,2.44,2.44,0,0,0-.47-.33l-.55-.33-.53-.38a2.23,2.23,0,0,1-.43-.49,1.8,1.8,0,0,1-.23-.64,2.31,2.31,0,0,1,.07-.84,1.86,1.86,0,0,1,.34-.71,2,2,0,0,1,.6-.53,2.24,2.24,0,0,1,.84-.27,2.61,2.61,0,0,1,1,.08,3.18,3.18,0,0,1,1.09.48,2.65,2.65,0,0,1,.76.77Z" style="fill: #ddc076"/>
  </g>
</svg>
