<svg id="Calque_1" data-name="Calque 1" xmlns="http://www.w3.org/2000/svg" width="1327.22" height="365.36" viewBox="0 0 1327.22 365.36">
  <title>logotype-bops-bop</title>
  <g>
    <path d="M0,282.27V94.08H64.81q18.48,0,31.63,3.52t21.54,10a39.05,39.05,0,0,1,12.3,15.74,53.16,53.16,0,0,1,3.9,20.83,41.17,41.17,0,0,1-2,12.69,36.55,36.55,0,0,1-6.06,11.32,45.27,45.27,0,0,1-10.41,9.57,62.93,62.93,0,0,1-15,7.28q38.79,8.73,38.79,41.91A53.41,53.41,0,0,1,135,249.09a48.72,48.72,0,0,1-13.28,17.5,63.41,63.41,0,0,1-21.47,11.52,93.7,93.7,0,0,1-29.15,4.16ZM35,175.56H62.86q18,0,27.13-6.51t9.18-20.7q0-14.7-8.33-20.95t-26-6.25H35Zm0,24.2v55.18h35.4a49.77,49.77,0,0,0,16.4-2.34,28.23,28.23,0,0,0,10.6-6.25,22.82,22.82,0,0,0,5.73-9.11,34.4,34.4,0,0,0,1.76-11.06,29.25,29.25,0,0,0-2-11,20.59,20.59,0,0,0-6.11-8.33,28.7,28.7,0,0,0-10.74-5.27,60,60,0,0,0-15.81-1.82Z" style="fill: #0c172b"/>
    <path d="M481.93,128.31a12.07,12.07,0,0,1-3.32,4,7.34,7.34,0,0,1-4.36,1.24,11.19,11.19,0,0,1-5.92-2q-3.19-2-7.62-4.49a62.84,62.84,0,0,0-10.34-4.49,43.34,43.34,0,0,0-14-2,41.86,41.86,0,0,0-12.76,1.76,26.79,26.79,0,0,0-9.17,4.88,19.5,19.5,0,0,0-5.53,7.48,24.5,24.5,0,0,0-1.82,9.57,16.6,16.6,0,0,0,3.71,11.06,30.86,30.86,0,0,0,9.82,7.55,91.55,91.55,0,0,0,13.93,5.6q7.8,2.46,16,5.27a151.25,151.25,0,0,1,16,6.5,55.67,55.67,0,0,1,13.92,9.37,42.68,42.68,0,0,1,9.83,13.86q3.71,8.21,3.7,19.92a65,65,0,0,1-4.35,23.88,55.09,55.09,0,0,1-12.76,19.39,60.16,60.16,0,0,1-20.5,13,75.61,75.61,0,0,1-27.72,4.75A89.44,89.44,0,0,1,411,282.6a93,93,0,0,1-16.73-5,90.07,90.07,0,0,1-15-7.81,71.91,71.91,0,0,1-12.5-10.15L377,242.84a11,11,0,0,1,3.39-3.06,8.54,8.54,0,0,1,4.42-1.24,12.42,12.42,0,0,1,7,2.67q3.76,2.67,9,5.93A70.78,70.78,0,0,0,413,253.06a47,47,0,0,0,16.72,2.66q15,0,23.16-7.09t8.21-20.37q0-7.41-3.71-12.1a30.08,30.08,0,0,0-9.83-7.87,72.74,72.74,0,0,0-13.93-5.4q-7.8-2.22-15.87-4.82a136.17,136.17,0,0,1-15.88-6.25,51.31,51.31,0,0,1-13.93-9.5,43.06,43.06,0,0,1-9.82-14.64q-3.72-8.79-3.71-21.67a51.18,51.18,0,0,1,4.1-20,51.72,51.72,0,0,1,11.9-17.31,58.3,58.3,0,0,1,19.27-12.1A70.66,70.66,0,0,1,436,92a87.8,87.8,0,0,1,30.71,5.21,69.5,69.5,0,0,1,23.95,14.57Z" style="fill: #0c172b"/>
    <path d="M644.87,92a56.29,56.29,0,0,1,20.49,3.51,49.44,49.44,0,0,1,15.49,9.37A44.75,44.75,0,0,1,691,118.29a43.16,43.16,0,0,1,4.36,15.62l-20.44,4.29q-5.73,1.17-8.32-4.94a32.52,32.52,0,0,0-3.07-6.44,23.24,23.24,0,0,0-4.49-5.34,20.33,20.33,0,0,0-6.11-3.65,22.2,22.2,0,0,0-8.07-1.36,24,24,0,0,0-9.76,1.89,21.14,21.14,0,0,0-7.23,5.07,22.45,22.45,0,0,0-4.49,7.42,25.54,25.54,0,0,0-1.56,8.91,35.94,35.94,0,0,0,.79,7.55,30,30,0,0,0,2.6,7.29,46.73,46.73,0,0,0,4.75,7.48,93.37,93.37,0,0,0,7.22,8.27l50,51.92a90.86,90.86,0,0,0,6.89-17.3,96.76,96.76,0,0,0,3.39-18.48,8.48,8.48,0,0,1,2.08-4.82,6.09,6.09,0,0,1,4.68-1.82h20a113.72,113.72,0,0,1-5,32.79,106.12,106.12,0,0,1-13.79,28.77L745,282.27H713.46a22.83,22.83,0,0,1-8-1.17,17.66,17.66,0,0,1-6.44-4.94l-13-13.41a96.57,96.57,0,0,1-27.73,15.88,94.18,94.18,0,0,1-33.18,5.73,63.36,63.36,0,0,1-21.28-3.71,58.57,58.57,0,0,1-18.68-10.74,54,54,0,0,1-13.2-17,49.09,49.09,0,0,1-5-22.44,48.57,48.57,0,0,1,2.87-16.73,55.2,55.2,0,0,1,7.93-14.58A65.73,65.73,0,0,1,589.82,187a79.91,79.91,0,0,1,15.36-9.37A72,72,0,0,1,595,158.57,57.8,57.8,0,0,1,591.9,140a48.58,48.58,0,0,1,3.58-18.54,43.7,43.7,0,0,1,10.35-15.29,49.43,49.43,0,0,1,16.65-10.35A61.52,61.52,0,0,1,644.87,92ZM630.81,258.72a59.18,59.18,0,0,0,21-3.58,59.87,59.87,0,0,0,17.18-10l-49.33-50.89q-10.41,6.77-15.16,15.29a37,37,0,0,0-4.75,18.29,32.17,32.17,0,0,0,2.47,12.89,28.81,28.81,0,0,0,6.7,9.69,29.56,29.56,0,0,0,9.9,6.12A33.64,33.64,0,0,0,630.81,258.72Z" style="fill: #ddc076"/>
    <path d="M811.19,282.27V94.08H876q18.48,0,31.62,3.52t21.54,10a38.88,38.88,0,0,1,12.3,15.74,53.16,53.16,0,0,1,3.9,20.83,41.17,41.17,0,0,1-2,12.69,36.73,36.73,0,0,1-6,11.32A45.48,45.48,0,0,1,927,177.77a62.93,62.93,0,0,1-15,7.28q38.77,8.73,38.78,41.91a53.56,53.56,0,0,1-4.55,22.13,48.83,48.83,0,0,1-13.28,17.5,63.5,63.5,0,0,1-21.47,11.52,93.77,93.77,0,0,1-29.16,4.16Zm35-106.71h27.86q18,0,27.13-6.51t9.17-20.7q0-14.7-8.33-20.95t-26-6.25H846.2Zm0,24.2v55.18h35.4A49.77,49.77,0,0,0,898,252.6a28.19,28.19,0,0,0,10.61-6.25,22.91,22.91,0,0,0,5.72-9.11,34.4,34.4,0,0,0,1.76-11.06,29.45,29.45,0,0,0-2-11,20.62,20.62,0,0,0-6.12-8.33,28.66,28.66,0,0,0-10.73-5.27,60.05,60.05,0,0,0-15.82-1.82Z" style="fill: #0c172b"/>
    <path d="M1227.92,216v66.24h-35V94.08h61.16q18.87,0,32.67,4.43t22.78,12.36a49.09,49.09,0,0,1,13.33,19,65.43,65.43,0,0,1,4.36,24.21,66.78,66.78,0,0,1-4.55,25A52,52,0,0,1,1309,198.72a63.56,63.56,0,0,1-22.85,12.75q-13.73,4.56-32.08,4.56Zm0-27.33h26.16a52.6,52.6,0,0,0,16.79-2.41,31.7,31.7,0,0,0,11.91-6.9,27.8,27.8,0,0,0,7.09-10.93,41.87,41.87,0,0,0,2.35-14.38,38,38,0,0,0-2.35-13.67,27,27,0,0,0-7-10.41,31.3,31.3,0,0,0-11.84-6.57,56,56,0,0,0-16.92-2.28h-26.16Z" style="fill: #0c172b"/>
  </g>
  <g>
    <path d="M42.15,345.19a21.49,21.49,0,0,1-1.56,8.25,19.13,19.13,0,0,1-4.4,6.57,20.19,20.19,0,0,1-6.86,4.32,24.35,24.35,0,0,1-8.9,1.56,24.26,24.26,0,0,1-8.87-1.56A20.33,20.33,0,0,1,4.69,360a19.37,19.37,0,0,1-4.44-6.57A22.43,22.43,0,0,1,.25,337a19.37,19.37,0,0,1,4.44-6.57,20.18,20.18,0,0,1,6.87-4.32,24.26,24.26,0,0,1,8.87-1.56,25.21,25.21,0,0,1,6.14.72,22.14,22.14,0,0,1,5.29,2,19.57,19.57,0,0,1,7.56,7.32,20,20,0,0,1,2,5A22.66,22.66,0,0,1,42.15,345.19Zm-8.16,0a17.39,17.39,0,0,0-1-6,12.52,12.52,0,0,0-2.7-4.5,11.74,11.74,0,0,0-4.26-2.83,15.46,15.46,0,0,0-5.65-1,15.46,15.46,0,0,0-5.65,1,11.91,11.91,0,0,0-4.28,2.83,12.54,12.54,0,0,0-2.71,4.5,19.26,19.26,0,0,0,0,11.95,12.37,12.37,0,0,0,2.71,4.48,12,12,0,0,0,4.28,2.82,15.46,15.46,0,0,0,5.65,1,15.46,15.46,0,0,0,5.65-1,11.85,11.85,0,0,0,4.26-2.82,12.35,12.35,0,0,0,2.7-4.48A17.41,17.41,0,0,0,34,345.19Z" style="fill: #0c172b"/>
    <path d="M57.17,349.62v15.82h-8V325H62.27a28.79,28.79,0,0,1,7.5.85,14.72,14.72,0,0,1,5.13,2.4,9.3,9.3,0,0,1,2.95,3.68,12.09,12.09,0,0,1,.31,8.58,10.76,10.76,0,0,1-1.84,3.31,12.26,12.26,0,0,1-3,2.6,16,16,0,0,1-4,1.79A7.79,7.79,0,0,1,72,350.49l10.74,14.95H75.48a3.22,3.22,0,0,1-3-1.51l-9-13a3.14,3.14,0,0,0-1.11-1,4.07,4.07,0,0,0-1.8-.31Zm0-5.41h5a12.91,12.91,0,0,0,3.94-.53,7.72,7.72,0,0,0,2.76-1.47A5.85,5.85,0,0,0,70.46,340a7.28,7.28,0,0,0,.54-2.83,5.61,5.61,0,0,0-2.15-4.73q-2.16-1.67-6.58-1.66h-5.1Z" style="fill: #0c172b"/>
    <path d="M95.36,365.44h-8V325h8Z" style="fill: #0c172b"/>
    <path d="M132,325v6H113v11.23h15V348H113v11.45h19v6H105V325Z" style="fill: #0c172b"/>
    <path d="M144.13,325a2.45,2.45,0,0,1,.66.17,2.21,2.21,0,0,1,.54.36,6.27,6.27,0,0,1,.6.63l22.49,27.11c-.06-.66-.11-1.3-.15-1.93s-.06-1.23-.06-1.77V325h7v40.49h-4.1a3.76,3.76,0,0,1-1.59-.3,3.63,3.63,0,0,1-1.23-1l-22.4-27c.06.59.1,1.19.13,1.77s.05,1.13.05,1.61v24.87h-7V325h4.19A7.49,7.49,0,0,1,144.13,325Z" style="fill: #0c172b"/>
    <path d="M214.78,325v6.19H201.84v34.3h-8v-34.3H180.92V325Z" style="fill: #0c172b"/>
    <path d="M253,365.44h-6.18a2.8,2.8,0,0,1-1.69-.49,3.14,3.14,0,0,1-1-1.22l-3.2-8.26H223.17l-3.2,8.26a2.79,2.79,0,0,1-.92,1.18,2.71,2.71,0,0,1-1.69.53h-6.24L228,325h8.13Zm-27.78-15.29H238.9l-5.22-13.47c-.26-.6-.53-1.3-.8-2.11s-.56-1.7-.83-2.65c-.28.95-.55,1.84-.82,2.66s-.53,1.54-.79,2.16Z" style="fill: #0c172b"/>
    <path d="M283.24,325v6.19H270.3v34.3h-8v-34.3H249.38V325Z" style="fill: #0c172b"/>
    <path d="M296.89,365.44h-8V325h8Z" style="fill: #0c172b"/>
    <path d="M347.4,345.19a21.49,21.49,0,0,1-1.56,8.25,19.3,19.3,0,0,1-4.41,6.57,20.15,20.15,0,0,1-6.85,4.32,26.11,26.11,0,0,1-17.78,0,20.33,20.33,0,0,1-6.87-4.32,19.37,19.37,0,0,1-4.44-6.57,22.43,22.43,0,0,1,0-16.49,19.37,19.37,0,0,1,4.44-6.57,20.18,20.18,0,0,1,6.87-4.32,24.26,24.26,0,0,1,8.87-1.56,25.29,25.29,0,0,1,6.15.72,22.06,22.06,0,0,1,5.28,2,19.4,19.4,0,0,1,4.32,3.17,19.23,19.23,0,0,1,5.28,9.14A22.66,22.66,0,0,1,347.4,345.19Zm-8.17,0a17.39,17.39,0,0,0-1-6,12.52,12.52,0,0,0-2.7-4.5,11.62,11.62,0,0,0-4.25-2.83,16.81,16.81,0,0,0-11.31,0,11.78,11.78,0,0,0-4.27,2.83,12.42,12.42,0,0,0-2.72,4.5,19.26,19.26,0,0,0,0,11.95,12.25,12.25,0,0,0,2.72,4.48,11.89,11.89,0,0,0,4.27,2.82,16.81,16.81,0,0,0,11.31,0,11.72,11.72,0,0,0,4.25-2.82,12.35,12.35,0,0,0,2.7-4.48A17.41,17.41,0,0,0,339.23,345.19Z" style="fill: #0c172b"/>
    <path d="M359.49,325a2.47,2.47,0,0,1,.65.17,2.26,2.26,0,0,1,.55.36,5.32,5.32,0,0,1,.59.63l22.5,27.11c-.06-.66-.11-1.3-.15-1.93s-.06-1.23-.06-1.77V325h7v40.49h-4.09a3.7,3.7,0,0,1-1.59-.3,3.45,3.45,0,0,1-1.23-1l-22.41-27c.06.59.11,1.19.14,1.77s0,1.13,0,1.61v24.87h-7V325h4.18A7.56,7.56,0,0,1,359.49,325Z" style="fill: #0c172b"/>
    <path d="M437.43,332.31a2.62,2.62,0,0,1-.76.86,1.78,1.78,0,0,1-1,.26,2.63,2.63,0,0,1-1.35-.43c-.49-.29-1.06-.61-1.74-1a15.19,15.19,0,0,0-2.36-1,10.42,10.42,0,0,0-3.19-.44,10.09,10.09,0,0,0-2.9.38,6.17,6.17,0,0,0-2.1,1.05,4.34,4.34,0,0,0-1.26,1.61,5,5,0,0,0-.41,2.06,3.46,3.46,0,0,0,.84,2.38,7,7,0,0,0,2.24,1.62,21.84,21.84,0,0,0,3.18,1.21c1.19.35,2.4.73,3.65,1.13a36.6,36.6,0,0,1,3.65,1.4,12.6,12.6,0,0,1,3.17,2,9,9,0,0,1,2.24,3,9.75,9.75,0,0,1,.85,4.28,13.3,13.3,0,0,1-1,5.14,11.91,11.91,0,0,1-2.91,4.17,13.8,13.8,0,0,1-4.68,2.8,17.9,17.9,0,0,1-6.32,1,22.12,22.12,0,0,1-7.85-1.46,21.29,21.29,0,0,1-3.42-1.68,16.24,16.24,0,0,1-2.85-2.18l2.34-3.62a2.45,2.45,0,0,1,.77-.65,2,2,0,0,1,1-.27,2.92,2.92,0,0,1,1.6.57c.58.39,1.26.81,2.05,1.28a16.82,16.82,0,0,0,2.78,1.27,11.31,11.31,0,0,0,3.81.58,8.1,8.1,0,0,0,5.28-1.53,5.33,5.33,0,0,0,1.87-4.38,4,4,0,0,0-.84-2.61,6.89,6.89,0,0,0-2.24-1.69,16.62,16.62,0,0,0-3.18-1.16c-1.19-.32-2.39-.66-3.62-1a32.16,32.16,0,0,1-3.62-1.34,11.72,11.72,0,0,1-3.18-2.05,9.37,9.37,0,0,1-2.24-3.15,11.45,11.45,0,0,1-.84-4.66,10.55,10.55,0,0,1,.93-4.31,11.16,11.16,0,0,1,2.72-3.72,13.29,13.29,0,0,1,4.39-2.61,17.08,17.08,0,0,1,6-1,21.27,21.27,0,0,1,7,1.12,15.9,15.9,0,0,1,5.46,3.14Z" style="fill: #0c172b"/>
    <path d="M476.6,355.89a1.64,1.64,0,0,1,1.16.48l3.15,3.22a17.3,17.3,0,0,1-6.43,4.67,23.31,23.31,0,0,1-9.15,1.63,23,23,0,0,1-8.6-1.54,19,19,0,0,1-6.51-4.29,18.57,18.57,0,0,1-4.14-6.55,23.34,23.34,0,0,1-1.44-8.32,22.12,22.12,0,0,1,1.54-8.35,19.12,19.12,0,0,1,4.35-6.54,19.82,19.82,0,0,1,6.69-4.27,23.35,23.35,0,0,1,8.61-1.53,22.22,22.22,0,0,1,8.32,1.46,19.86,19.86,0,0,1,6.19,3.81l-2.67,3.5a2.26,2.26,0,0,1-.61.58,1.79,1.79,0,0,1-1,.26,2,2,0,0,1-.92-.24c-.32-.16-.66-.36-1-.59s-.81-.49-1.31-.77a10.28,10.28,0,0,0-1.72-.77,15.18,15.18,0,0,0-2.27-.59,16.41,16.41,0,0,0-3-.24,14,14,0,0,0-5.27,1,11.47,11.47,0,0,0-4.11,2.8,12.81,12.81,0,0,0-2.67,4.48,17.87,17.87,0,0,0-.95,6,16.67,16.67,0,0,0,1,6.08,13.12,13.12,0,0,0,2.77,4.48,12,12,0,0,0,4.13,2.79,13.45,13.45,0,0,0,5.1,1,22,22,0,0,0,2.95-.17,13.46,13.46,0,0,0,2.44-.53,10.44,10.44,0,0,0,2.1-.94,12.94,12.94,0,0,0,2-1.41,2.78,2.78,0,0,1,.62-.41A1.6,1.6,0,0,1,476.6,355.89Z" style="fill: #0c172b"/>
    <path d="M526.4,345.19a21.49,21.49,0,0,1-1.56,8.25,19.3,19.3,0,0,1-4.41,6.57,20.15,20.15,0,0,1-6.85,4.32,26.11,26.11,0,0,1-17.78,0,20.33,20.33,0,0,1-6.87-4.32,19.35,19.35,0,0,1-4.43-6.57,22.3,22.3,0,0,1,0-16.49,19.35,19.35,0,0,1,4.43-6.57,20.18,20.18,0,0,1,6.87-4.32,24.28,24.28,0,0,1,8.88-1.56,25.27,25.27,0,0,1,6.14.72,21.9,21.9,0,0,1,5.28,2,19.4,19.4,0,0,1,4.32,3.17,19.15,19.15,0,0,1,3.25,4.15,19.58,19.58,0,0,1,2,5A22.2,22.2,0,0,1,526.4,345.19Zm-8.16,0a17.64,17.64,0,0,0-1-6,12.66,12.66,0,0,0-2.7-4.5,11.74,11.74,0,0,0-4.26-2.83,16.81,16.81,0,0,0-11.31,0,11.87,11.87,0,0,0-4.27,2.83,12.56,12.56,0,0,0-2.72,4.5,19.46,19.46,0,0,0,0,11.95,12.39,12.39,0,0,0,2.72,4.48,12,12,0,0,0,4.27,2.82,16.81,16.81,0,0,0,11.31,0,11.85,11.85,0,0,0,4.26-2.82,12.49,12.49,0,0,0,2.7-4.48A17.66,17.66,0,0,0,518.24,345.19Z" style="fill: #0c172b"/>
    <path d="M541.42,359.22h17.15v6.22H533.43V325h8Z" style="fill: #0c172b"/>
    <path d="M601,365.44h-6.17a2.78,2.78,0,0,1-1.69-.49,3.05,3.05,0,0,1-1-1.22L589,355.47H571.21L568,363.73a2.74,2.74,0,0,1-2.61,1.71h-6.23L576.05,325h8.13Zm-27.77-15.29h13.68l-5.23-13.47c-.25-.6-.52-1.3-.8-2.11s-.55-1.7-.83-2.65c-.28.95-.55,1.84-.81,2.66s-.53,1.54-.79,2.16Z" style="fill: #0c172b"/>
    <path d="M613.5,365.44h-8V325h8Z" style="fill: #0c172b"/>
    <path d="M631.06,349.62v15.82h-8V325h13.09a28.71,28.71,0,0,1,7.49.85,14.55,14.55,0,0,1,5.13,2.4,9.41,9.41,0,0,1,3,3.68,11.57,11.57,0,0,1,1,4.72,11.71,11.71,0,0,1-.64,3.86,11.19,11.19,0,0,1-1.84,3.31,12.13,12.13,0,0,1-3,2.6,16,16,0,0,1-4,1.79,7.69,7.69,0,0,1,2.61,2.33l10.74,14.95h-7.21a3.21,3.21,0,0,1-3-1.51l-9-13a3,3,0,0,0-1.11-1,4,4,0,0,0-1.79-.31Zm0-5.41h5a12.89,12.89,0,0,0,3.93-.53,7.55,7.55,0,0,0,2.76-1.47,6,6,0,0,0,1.62-2.22,7.46,7.46,0,0,0,.53-2.83,5.61,5.61,0,0,0-2.15-4.73q-2.15-1.67-6.57-1.66h-5.11Z" style="fill: #0c172b"/>
    <path d="M688.31,325v6h-19v11.23h15V348h-15v11.45h19v6H661.24V325Z" style="fill: #0c172b"/>
    <path d="M736.86,325v6H717.8v11.23h15V348h-15v11.45h19.06v6H709.79V325Z" style="fill: #0c172b"/>
    <path d="M773.89,325v6.19H761v34.3h-8v-34.3H740V325Z" style="fill: #0c172b"/>
    <path d="M800.13,351.19v14.25h-8V325h14a26,26,0,0,1,7.45.95,14.68,14.68,0,0,1,5.19,2.66,10.48,10.48,0,0,1,3,4.09,13.26,13.26,0,0,1,1,5.21,13.74,13.74,0,0,1-1,5.39,11.1,11.1,0,0,1-3.12,4.21,14.73,14.73,0,0,1-5.21,2.75,24.59,24.59,0,0,1-7.31,1Zm0-5.88h6a12.9,12.9,0,0,0,3.83-.52,7.3,7.3,0,0,0,2.71-1.49,5.88,5.88,0,0,0,1.62-2.35,8.42,8.42,0,0,0,.54-3.09,7.7,7.7,0,0,0-.54-2.94,5.8,5.8,0,0,0-1.6-2.24,7.22,7.22,0,0,0-2.7-1.42,13.78,13.78,0,0,0-3.86-.49h-6Z" style="fill: #0c172b"/>
    <path d="M836.86,349.62v15.82h-8V325H842a28.71,28.71,0,0,1,7.49.85,14.55,14.55,0,0,1,5.13,2.4,9.41,9.41,0,0,1,3,3.68,11.57,11.57,0,0,1,1,4.72,11.71,11.71,0,0,1-.64,3.86,11.19,11.19,0,0,1-1.84,3.31,12.13,12.13,0,0,1-3,2.6,16,16,0,0,1-4,1.79,7.69,7.69,0,0,1,2.61,2.33l10.74,14.95h-7.21a3.21,3.21,0,0,1-3-1.51l-9-13a3,3,0,0,0-1.11-1,4,4,0,0,0-1.79-.31Zm0-5.41h5a12.89,12.89,0,0,0,3.93-.53,7.55,7.55,0,0,0,2.76-1.47,6,6,0,0,0,1.62-2.22,7.46,7.46,0,0,0,.53-2.83,5.61,5.61,0,0,0-2.15-4.73q-2.14-1.67-6.57-1.66h-5.11Z" style="fill: #0c172b"/>
    <path d="M907.31,345.19a21.49,21.49,0,0,1-1.56,8.25,19.13,19.13,0,0,1-4.4,6.57,20.19,20.19,0,0,1-6.86,4.32,26.08,26.08,0,0,1-17.77,0,20.33,20.33,0,0,1-6.87-4.32,19.37,19.37,0,0,1-4.44-6.57,22.43,22.43,0,0,1,0-16.49,19.37,19.37,0,0,1,4.44-6.57,20.18,20.18,0,0,1,6.87-4.32,24.26,24.26,0,0,1,8.87-1.56,25.21,25.21,0,0,1,6.14.72,22.14,22.14,0,0,1,5.29,2,19.57,19.57,0,0,1,7.56,7.32,20,20,0,0,1,2,5A22.66,22.66,0,0,1,907.31,345.19Zm-8.16,0a17.39,17.39,0,0,0-.95-6,12.52,12.52,0,0,0-2.7-4.5,11.57,11.57,0,0,0-4.26-2.83,16.78,16.78,0,0,0-11.3,0,11.82,11.82,0,0,0-4.28,2.83,12.54,12.54,0,0,0-2.71,4.5,19.26,19.26,0,0,0,0,11.95,12.37,12.37,0,0,0,2.71,4.48,11.93,11.93,0,0,0,4.28,2.82,16.78,16.78,0,0,0,11.3,0,11.68,11.68,0,0,0,4.26-2.82,12.35,12.35,0,0,0,2.7-4.48A17.41,17.41,0,0,0,899.15,345.19Z" style="fill: #0c172b"/>
    <path d="M941.41,325v6h-19v12h16.08v6H922.36v16.49h-8V325Z" style="fill: #0c172b"/>
    <path d="M975,325v6H956v11.23h15V348H956v11.45h19v6H947.94V325Z" style="fill: #0c172b"/>
    <path d="M1004.92,332.31a2.62,2.62,0,0,1-.76.86,1.82,1.82,0,0,1-1,.26,2.63,2.63,0,0,1-1.35-.43c-.49-.29-1.07-.61-1.74-1a15.19,15.19,0,0,0-2.36-1,10.42,10.42,0,0,0-3.19-.44,10.12,10.12,0,0,0-2.91.38,6.12,6.12,0,0,0-2.09,1.05,4.34,4.34,0,0,0-1.26,1.61,5,5,0,0,0-.42,2.06,3.42,3.42,0,0,0,.85,2.38,6.92,6.92,0,0,0,2.24,1.62,22.14,22.14,0,0,0,3.17,1.21c1.19.35,2.41.73,3.65,1.13a34.81,34.81,0,0,1,3.65,1.4,12.66,12.66,0,0,1,3.18,2,9,9,0,0,1,2.24,3,9.89,9.89,0,0,1,.85,4.28,13.3,13.3,0,0,1-1,5.14,11.65,11.65,0,0,1-2.91,4.17,13.65,13.65,0,0,1-4.67,2.8,17.94,17.94,0,0,1-6.32,1,22,22,0,0,1-7.85-1.46,21.4,21.4,0,0,1-3.43-1.68,16.24,16.24,0,0,1-2.85-2.18L981,357a2.34,2.34,0,0,1,.77-.65,2,2,0,0,1,1-.27,2.94,2.94,0,0,1,1.6.57c.57.39,1.26.81,2,1.28a16.7,16.7,0,0,0,2.77,1.27,11.33,11.33,0,0,0,3.82.58,8.14,8.14,0,0,0,5.28-1.53,5.33,5.33,0,0,0,1.87-4.38,3.9,3.9,0,0,0-.85-2.61,6.78,6.78,0,0,0-2.24-1.69,16.76,16.76,0,0,0-3.17-1.16c-1.19-.32-2.4-.66-3.62-1a31.46,31.46,0,0,1-3.62-1.34,11.72,11.72,0,0,1-3.18-2.05,9.24,9.24,0,0,1-2.24-3.15,11.45,11.45,0,0,1-.85-4.66,10.57,10.57,0,0,1,.94-4.31,11.13,11.13,0,0,1,2.71-3.72,13.34,13.34,0,0,1,4.4-2.61,17.06,17.06,0,0,1,6-1,21.23,21.23,0,0,1,7,1.12,15.9,15.9,0,0,1,5.46,3.14Z" style="fill: #0c172b"/>
    <path d="M1037.47,332.31a2.62,2.62,0,0,1-.76.86,1.78,1.78,0,0,1-1,.26,2.63,2.63,0,0,1-1.35-.43c-.49-.29-1.06-.61-1.74-1a15.19,15.19,0,0,0-2.36-1,10.42,10.42,0,0,0-3.19-.44,10.09,10.09,0,0,0-2.9.38,6.27,6.27,0,0,0-2.1,1.05,4.34,4.34,0,0,0-1.26,1.61,5.15,5.15,0,0,0-.41,2.06,3.46,3.46,0,0,0,.84,2.38,7,7,0,0,0,2.24,1.62,21.84,21.84,0,0,0,3.18,1.21c1.19.35,2.4.73,3.65,1.13a35.68,35.68,0,0,1,3.65,1.4,12.6,12.6,0,0,1,3.17,2,9,9,0,0,1,2.24,3,9.75,9.75,0,0,1,.85,4.28,13.3,13.3,0,0,1-1,5.14,11.91,11.91,0,0,1-2.91,4.17,13.8,13.8,0,0,1-4.68,2.8,17.9,17.9,0,0,1-6.32,1,21.72,21.72,0,0,1-11.27-3.14,16.24,16.24,0,0,1-2.85-2.18l2.34-3.62a2.45,2.45,0,0,1,.77-.65,2,2,0,0,1,1-.27,3,3,0,0,1,1.61.57c.57.39,1.25.81,2,1.28a16.82,16.82,0,0,0,2.78,1.27,11.31,11.31,0,0,0,3.81.58,8.1,8.1,0,0,0,5.28-1.53,5.33,5.33,0,0,0,1.87-4.38,4,4,0,0,0-.84-2.61,6.89,6.89,0,0,0-2.24-1.69,16.62,16.62,0,0,0-3.18-1.16c-1.19-.32-2.39-.66-3.62-1a32.16,32.16,0,0,1-3.62-1.34,11.51,11.51,0,0,1-3.17-2.05,9.4,9.4,0,0,1-2.25-3.15,11.45,11.45,0,0,1-.84-4.66,10.55,10.55,0,0,1,.93-4.31,11.16,11.16,0,0,1,2.72-3.72,13.29,13.29,0,0,1,4.39-2.61,17.08,17.08,0,0,1,6-1,21.27,21.27,0,0,1,7,1.12,15.9,15.9,0,0,1,5.46,3.14Z" style="fill: #0c172b"/>
    <path d="M1055.19,365.44h-8V325h8Z" style="fill: #0c172b"/>
    <path d="M1105.7,345.19a21.49,21.49,0,0,1-1.56,8.25,19.3,19.3,0,0,1-4.41,6.57,20.15,20.15,0,0,1-6.85,4.32,26.11,26.11,0,0,1-17.78,0,20.33,20.33,0,0,1-6.87-4.32,19.37,19.37,0,0,1-4.44-6.57,22.43,22.43,0,0,1,0-16.49,19.37,19.37,0,0,1,4.44-6.57,20.18,20.18,0,0,1,6.87-4.32,24.26,24.26,0,0,1,8.87-1.56,25.29,25.29,0,0,1,6.15.72,22.06,22.06,0,0,1,5.28,2,19.57,19.57,0,0,1,7.56,7.32,20,20,0,0,1,2,5A22.66,22.66,0,0,1,1105.7,345.19Zm-8.17,0a17.39,17.39,0,0,0-1-6,12.52,12.52,0,0,0-2.7-4.5,11.62,11.62,0,0,0-4.25-2.83,16.81,16.81,0,0,0-11.31,0,11.78,11.78,0,0,0-4.27,2.83,12.42,12.42,0,0,0-2.72,4.5,19.26,19.26,0,0,0,0,11.95,12.25,12.25,0,0,0,2.72,4.48,11.89,11.89,0,0,0,4.27,2.82,16.81,16.81,0,0,0,11.31,0,11.72,11.72,0,0,0,4.25-2.82,12.35,12.35,0,0,0,2.7-4.48A17.41,17.41,0,0,0,1097.53,345.19Z" style="fill: #0c172b"/>
    <path d="M1117.79,325a2.37,2.37,0,0,1,.65.17,2.26,2.26,0,0,1,.55.36,5.32,5.32,0,0,1,.59.63l22.5,27.11c-.06-.66-.11-1.3-.15-1.93s-.06-1.23-.06-1.77V325h7v40.49h-4.09a3.73,3.73,0,0,1-1.59-.3,3.45,3.45,0,0,1-1.23-1l-22.41-27c.06.59.11,1.19.14,1.77s0,1.13,0,1.61v24.87h-7V325h4.18A7.56,7.56,0,0,1,1117.79,325Z" style="fill: #0c172b"/>
    <path d="M1163.52,325a2.47,2.47,0,0,1,.65.17,2.26,2.26,0,0,1,.55.36,6.3,6.3,0,0,1,.59.63l22.5,27.11c-.06-.66-.11-1.3-.15-1.93s-.06-1.23-.06-1.77V325h7v40.49h-4.09a3.73,3.73,0,0,1-1.59-.3,3.45,3.45,0,0,1-1.23-1l-22.41-27c.06.59.11,1.19.14,1.77s0,1.13,0,1.61v24.87h-7V325h4.18A7.56,7.56,0,0,1,1163.52,325Z" style="fill: #0c172b"/>
    <path d="M1231.25,325v6h-19v11.23h15V348h-15v11.45h19v6h-27.06V325Z" style="fill: #0c172b"/>
    <path d="M1246.3,359.22h17.15v6.22h-25.14V325h8Z" style="fill: #0c172b"/>
    <path d="M1277.13,359.22h17.15v6.22h-25.13V325h8Z" style="fill: #0c172b"/>
    <path d="M1327,325v6h-19v11.23h15V348h-15v11.45h19v6H1300V325Z" style="fill: #0c172b"/>
  </g>
  <g>
    <path d="M204.58,63.3,205.06,97s26.8-13.69,51-13.69,51,13.69,51,13.69l.46-34.14s-26-13.76-51.88-13.76S204.58,63.3,204.58,63.3Z" style="fill: #ddc076"/>
    <path d="M336.41,79.31c-1.44,0-2.93,0-4.46,0" style="fill: #0c172b"/>
    <path d="M346.65,51l-10.24-5.66V42.67s2.88-14.62-13.49-7a3,3,0,0,0-1.47,1.37L253.9-.41l-88.76,50.8,33.52,15.23V60.68s28.12-15.79,57-15.79,57.83,15.35,57.83,15.35v8.63L332,58.93V79.27c1.53,0,3,0,4.46,0V56.53Z" style="fill: #0c172b"/>
    <path d="M331.94,40.18v2.7l-5.4-3C328.51,38.58,331.94,36.77,331.94,40.18Z" style="fill: #0c172b"/>
    <path d="M330.11,56a4.33,4.33,0,1,1,4.33-4.33A4.34,4.34,0,0,1,330.11,56Z" style="fill: #0c172b"/>
    <path d="M331.94,40.18c0-3.41-3.43-1.6-5.4-.3l5.4,3Z" style="fill: #0c172b"/>
    <path d="M330.11,47.31a4.33,4.33,0,1,0,4.33,4.33A4.34,4.34,0,0,0,330.11,47.31Z" style="fill: #0c172b"/>
    <path d="M332,70.25v19.9h-6.16v14.31L334,98.8l9.09,5.66V90.15h-6.66V70.29" style="fill: #0c172b"/>
  </g>
  <path d="M256.05,125a62,62,0,1,1-62,62,62,62,0,0,1,62-62m0-36a98,98,0,1,0,98,98,98,98,0,0,0-98-98Z" style="fill: #0c172b"/>
  <path d="M1067.05,117.67a69.21,69.21,0,1,1-69.21,69.21,69.28,69.28,0,0,1,69.21-69.21m0-28.8a98,98,0,1,0,98,98,98,98,0,0,0-98-98Z" style="fill: #0c172b"/>
  <path d="M1067.05,238.75a51.87,51.87,0,1,1,51.86-51.87A51.93,51.93,0,0,1,1067.05,238.75Zm0-93.26a41.39,41.39,0,1,0,41.39,41.39A41.44,41.44,0,0,0,1067.05,145.49Z" style="fill: #0c172b"/>
  <circle cx="1067.05" cy="186.88" r="24" style="fill: #0c172b"/>
  <path d="M1068.44,194.29a9.16,9.16,0,0,1-7.54-14.36l60.79-88.33a9.16,9.16,0,0,1,15.1,10.39L1076,190.32A9.14,9.14,0,0,1,1068.44,194.29Z" style="fill: #ddc076"/>
  <g>
    <polygon points="1153.57 61.96 1126.17 101.29 1117.04 80.74 1147.44 35.73 1153.57 61.96" style="fill: #ceae67"/>
    <polygon points="1180.3 58.63 1148.61 102.73 1126.17 101.29 1153.57 61.96 1180.3 58.63" style="fill: #b7944e"/>
  </g>
</svg>
